<svg height="512pt" viewBox="0 0 512 512" width="512pt" xmlns="http://www.w3.org/2000/svg"><path d="m452 0h-392c-33.085938 0-60 26.914062-60 60v270c0 33.085938 26.914062 60 60 60h392c33.085938 0 60-26.914062 60-60v-270c0-33.085938-26.914062-60-60-60zm20 330c0 11.027344-8.972656 20-20 20h-392c-11.027344 0-20-8.972656-20-20v-270c0-11.027344 8.972656-20 20-20h392c11.027344 0 20 8.972656 20 20zm-302.957031 121h342.957031v40h-341.792969c-6.765625 12.503906-19.992187 21-35.207031 21s-28.441406-8.496094-35.207031-21h-99.792969v-40h100.957031c7.046875-11.398438 19.65625-19 34.042969-19s26.996094 7.601562 34.042969 19zm6.957031-149.34375 181.972656-105.15625-181.972656-105.15625zm40-141 62.027344 35.84375-62.027344 35.84375zm0 0"/></svg>